arm26_optimize_states
version=1
nRows=37
nColumns=17
inDegrees=yes

# SIMM Motion File Header:
name arm26_optimize_states
datacolumns 17
datarows 37
otherdata 1
range 0.33679497 0.58687499
endheader
time	r_shoulder_elev	r_elbow_flex	r_shoulder_elev_u	r_elbow_flex_u	TRIlong.activation	TRIlong.fiber_length	TRIlat.activation	TRIlat.fiber_length	TRImed.activation	TRImed.fiber_length	BIClong.activation	BIClong.fiber_length	BICshort.activation	BICshort.fiber_length	BRA.activation	BRA.fiber_length
      0.33679497	     -0.35487720	      6.38946573	     12.04746699	      4.82043542	      0.01046945	      0.13892295	      0.01046945	      0.07294361	      0.01046945	      0.06797098	      0.01046945	      0.14443029	      0.01046945	      0.14686697	      0.01046945	      0.08714478
      0.34379265	     -0.27029741	      6.42404710	     12.12198854	      5.06596774	      0.01042895	      0.13898901	      0.01042895	      0.07295708	      0.01042895	      0.06798434	      0.01042895	      0.14440219	      0.01042895	      0.14684973	      0.01042895	      0.08714553
      0.35079034	     -0.18527839	      6.46038087	     12.17350909	      5.31922314	      0.01039196	      0.13905594	      0.01039196	      0.07297114	      0.01039196	      0.06799828	      0.01039196	      0.14437174	      0.01039196	      0.14683207	      0.01039196	      0.08714624
      0.35778802	     -0.09998142	      6.49852204	     12.20102721	      5.58415447	      0.01035815	      0.13912367	      0.01035815	      0.07298580	      0.01035815	      0.06801285	      0.01035815	      0.14434277	      0.01035815	      0.14681400	      0.01035815	      0.08714691
      0.36478571	     -0.01457062	      6.53853682	     12.20666443	      5.85220364	      0.01032726	      0.13919214	      0.01032726	      0.07300111	      0.01032726	      0.06802806	      0.01032726	      0.14431102	      0.01032726	      0.14679553	      0.01032726	      0.08714755
      0.37085181	      0.05944252	      6.57476106	     12.19265972	      6.09189689	      0.01030266	      0.13925203	      0.01030266	      0.07301492	      0.01030266	      0.06804179	      0.01030266	      0.14428514	      0.01030266	      0.14677921	      0.01030266	      0.08714808
      0.37691792	      0.13332162	      6.61244352	     12.16265445	      6.33227418	      0.01027990	      0.13931237	      0.01027990	      0.07302924	      0.01027990	      0.06805604	      0.01027990	      0.14425755	      0.01027990	      0.14676262	      0.01027990	      0.08714859
      0.38459737	      0.22650435	      6.66225310	     12.10094730	      6.64086489	      0.01025353	      0.13938931	      0.01025353	      0.07304813	      0.01025353	      0.06807483	      0.01025353	      0.14422317	      0.01025353	      0.14674122	      0.01025353	      0.08714921
      0.39227683	      0.31911474	      6.71443857	     12.01413003	      6.94898823	      0.01022965	      0.13946677	      0.01022965	      0.07306787	      0.01022965	      0.06809449	      0.01022965	      0.14418702	      0.01022965	      0.14671942	      0.01022965	      0.08714979
      0.39824785	      0.39060378	      6.75665362	     11.92859715	      7.19126861	      0.01021264	      0.13952730	      0.01021264	      0.07308383	      0.01021264	      0.06811038	      0.01021264	      0.14416024	      0.01021264	      0.14670221	      0.01021264	      0.08715022
      0.40421887	      0.46153840	      6.80030965	     11.82857283	      7.43110295	      0.01019690	      0.13958802	      0.01019690	      0.07310032	      0.01019690	      0.06812680	      0.01019690	      0.14413200	      0.01019690	      0.14668477	      0.01019690	      0.08715063
      0.41217085	      0.55499468	      6.86066953	     11.67214156	      7.75019826	      0.01017773	      0.13966910	      0.01017773	      0.07312310	      0.01017773	      0.06814949	      0.01017773	      0.14409501	      0.01017773	      0.14666120	      0.01017773	      0.08715115
      0.41931686	      0.63783655	      6.91706650	     11.51009796	      8.03273401	      0.01016210	      0.13974208	      0.01016210	      0.07314438	      0.01016210	      0.06817069	      0.01016210	      0.14406047	      0.01016210	      0.14663973	      0.01016210	      0.08715159
      0.42646288	      0.71944696	      6.97547426	     11.32709005	      8.31468330	      0.01014784	      0.13981508	      0.01014784	      0.07316642	      0.01014784	      0.06819265	      0.01014784	      0.14402744	      0.01014784	      0.14661797	      0.01014784	      0.08715200
      0.43270483	      0.78960993	      7.02812737	     11.15163138	      8.55503136	      0.01013642	      0.13987877	      0.01013642	      0.07318629	      0.01013642	      0.06821244	      0.01013642	      0.14399674	      0.01013642	      0.14659877	      0.01013642	      0.08715233
      0.43894678	      0.85862994	      7.08227470	     10.96072624	      8.79413478	      0.01012588	      0.13994233	      0.01012588	      0.07320673	      0.01012588	      0.06823281	      0.01012588	      0.14396737	      0.01012588	      0.14657937	      0.01012588	      0.08715265
      0.44518873	      0.92641325	      7.13790011	     10.75553428	      9.02813687	      0.01011616	      0.14000570	      0.01011616	      0.07322773	      0.01011616	      0.06825374	      0.01011616	      0.14393715	      0.01011616	      0.14655980	      0.01011616	      0.08715294
      0.45378488	      1.01757308	      7.21687091	     10.44922050	      9.34494001	      0.01010399	      0.14009255	      0.01010399	      0.07325758	      0.01010399	      0.06828348	      0.01010399	      0.14389647	      0.01010399	      0.14653258	      0.01010399	      0.08715330
      0.46011866	      1.08299648	      7.27677934	     10.20709536	      9.57093187	      0.01009584	      0.14015614	      0.01009584	      0.07328024	      0.01009584	      0.06830605	      0.01009584	      0.14386539	      0.01009584	      0.14651235	      0.01009584	      0.08715353
      0.46645244	      1.14684101	      7.33810676	      9.95055120	      9.79364827	      0.01008833	      0.14021932	      0.01008833	      0.07330345	      0.01008833	      0.06832918	      0.01008833	      0.14383554	      0.01008833	      0.14649197	      0.01008833	      0.08715374
      0.47408438	      1.22154793	      7.41384897	      9.62381552	     10.05310122	      0.01008006	      0.14029479	      0.01008006	      0.07333214	      0.01008006	      0.06835777	      0.01008006	      0.14379865	      0.01008006	      0.14646724	      0.01008006	      0.08715396
      0.48171632	      1.29368754	      7.49154110	      9.27737365	     10.30653905	      0.01007257	      0.14036946	      0.01007257	      0.07336160	      0.01007257	      0.06838713	      0.01007257	      0.14376339	      0.01007257	      0.14644233	      0.01007257	      0.08715414
      0.48770495	      1.34840095	      7.55383581	      8.99326260	     10.49655783	      0.01006718	      0.14042742	      0.01006718	      0.07338524	      0.01006718	      0.06841068	      0.01006718	      0.14373422	      0.01006718	      0.14642267	      0.01006718	      0.08715425
      0.49369358	      1.40137853	      7.61725647	      8.69760964	     10.68297221	      0.01006220	      0.14048475	      0.01006220	      0.07340934	      0.01006220	      0.06843469	      0.01006220	      0.14370646	      0.01006220	      0.14640293	      0.01006220	      0.08715433
      0.50159438	      1.46850423	      7.70260023	      8.29158726	     10.91870574	      0.01005618	      0.14055936	      0.01005618	      0.07344179	      0.01005618	      0.06846702	      0.01005618	      0.14366934	      0.01005618	      0.14637676	      0.01005618	      0.08715439
      0.50886486	      1.52738085	      7.78274732	      7.90187464	     11.12770291	      0.01005116	      0.14062689	      0.01005116	      0.07347231	      0.01005116	      0.06849743	      0.01005116	      0.14363633	      0.01005116	      0.14635257	      0.01005116	      0.08715441
      0.51613534	      1.58337183	      7.86437849	      7.49826368	     11.32549427	      0.01004659	      0.14069323	      0.01004659	      0.07350342	      0.01004659	      0.06852843	      0.01004659	      0.14360243	      0.01004659	      0.14632829	      0.01004659	      0.08715437
      0.52340581	      1.63637714	      7.94741684	      7.08018488	     11.51667010	      0.01004242	      0.14075832	      0.01004242	      0.07353511	      0.01004242	      0.06856000	      0.01004242	      0.14357060	      0.01004242	      0.14630394	      0.01004242	      0.08715427
      0.52980286	      1.68046543	      8.02159861	      6.70222689	     11.67409769	      0.01003907	      0.14081447	      0.01003907	      0.07356345	      0.01003907	      0.06858823	      0.01003907	      0.14354126	      0.01003907	      0.14628247	      0.01003907	      0.08715415
      0.53619992	      1.72210360	      8.09676805	      6.31405088	     11.82620165	      0.01003598	      0.14086951	      0.01003598	      0.07359221	      0.01003598	      0.06861687	      0.01003598	      0.14351363	      0.01003598	      0.14626097	      0.01003598	      0.08715399
      0.54259697	      1.76122973	      8.17288327	      5.91704788	     11.96935257	      0.01003314	      0.14092341	      0.01003314	      0.07362135	      0.01003314	      0.06864590	      0.01003314	      0.14348563	      0.01003314	      0.14623945	      0.01003314	      0.08715379
      0.55159601	      1.81191093	      8.28145651	      5.34360903	     12.15915180	      0.01002951	      0.14099716	      0.01002951	      0.07366297	      0.01002951	      0.06868736	      0.01002951	      0.14344788	      0.01002951	      0.14620915	      0.01002951	      0.08715345
      0.55800530	      1.84482530	      8.35978995	      4.92602801	     12.28289542	      0.01002717	      0.14104815	      0.01002717	      0.07369304	      0.01002717	      0.06871731	      0.01002717	      0.14342045	      0.01002717	      0.14618757	      0.01002717	      0.08715314
      0.56441459	      1.87503805	      8.43889505	      4.50051409	     12.40050962	      0.01002502	      0.14109781	      0.01002502	      0.07372345	      0.01002502	      0.06874759	      0.01002502	      0.14339456	      0.01002502	      0.14616600	      0.01002502	      0.08715280
      0.57237769	      1.90874077	      8.53818335	      3.96262514	     12.53401763	      0.01002258	      0.14115758	      0.01002258	      0.07376165	      0.01002258	      0.06878564	      0.01002258	      0.14336226	      0.01002258	      0.14613924	      0.01002258	      0.08715232
      0.58034080	      1.93812078	      8.63848633	      3.41457474	     12.65700455	      0.01002038	      0.14121512	      0.01002038	      0.07380029	      0.01002038	      0.06882413	      0.01002038	      0.14333188	      0.01002038	      0.14611254	      0.01002038	      0.08715176
      0.58687499	      1.95894658	      8.72148670	      2.95902543	     12.74613510	      0.01001874	      0.14126062	      0.01001874	      0.07383231	      0.01001874	      0.06885601	      0.01001874	      0.14330621	      0.01001874	      0.14609069	      0.01001874	      0.08715126
